<?xml version="1.0" encoding="UTF-8"?><svg id="Layer_2" xmlns="http://www.w3.org/2000/svg" viewBox="0 0 771.5 424.12"><defs><style>.cls-1{stroke-width:5px;}.cls-1,.cls-2{stroke:#67e026;}.cls-1,.cls-2,.cls-3,.cls-4,.cls-5{stroke-miterlimit:10;}.cls-1,.cls-2,.cls-3,.cls-5{fill:none;}.cls-6{font-size:18px;}.cls-6,.cls-7,.cls-8{fill:#5eff00;font-family:'Force_Overing', 'Force Overing';}.cls-3{stroke-width:1.47px;}.cls-3,.cls-4,.cls-5{stroke:#5eff00;}.cls-7{font-size:19.36px;}.cls-9{opacity:.85;stroke-width:0px;}.cls-9,.cls-4{fill:#444;}.cls-4{opacity:.83;}.cls-5{stroke-width:.74px;}.cls-8{font-size:16.01px;}</style></defs><g id="Layer_2-2"><polygon class="cls-9" points="764.91 4.09 105.38 2.5 96.11 11.77 96.11 32.22 769 32.22 764.91 4.09"/><path class="cls-1" d="M96.11,11.77v309.25c0,2.25.82,4.43,2.31,6.12l80.35,91.33c1.76,2,4.3,3.15,6.96,3.15h573.99c5.12,0,9.27-4.15,9.27-9.27V11.77c0-5.12-4.15-9.27-9.27-9.27H105.38c-5.12,0-9.27,4.15-9.27,9.27Z"/><polygon class="cls-4" points="121.28 32.22 121.28 318.57 191.98 401.8 743.97 401.8 743.97 32.22 121.28 32.22"/><path class="cls-2" d="M769,32.22H96.11h672.88Z"/><text class="cls-6" transform="translate(107.04 23.8)"><tspan x="0" y="0">TERMINAL</tspan></text><text class="cls-7" transform="translate(730.52 24.95) scale(1.07 1)"><tspan x="0" y="0">X</tspan></text><text class="cls-8" transform="translate(673.85 26.18) scale(1.87 1)"><tspan x="0" y="0">-</tspan></text><rect class="cls-3" x="703.84" y="12.31" width="14.45" height="13.87" rx=".63" ry=".63"/><line class="cls-5" x1="703.84" y1="15.97" x2="718.3" y2="15.97"/></g></svg>